<svg width="104" height="22" viewBox="0 0 104 22" fill="none" xmlns="http://www.w3.org/2000/svg">
<path d="M29.0699 7.7385C27.8981 7.02472 26.5526 6.63063 25.1728 6.59708C23.793 6.56352 22.4291 6.89172 21.2226 7.54765C20.016 8.20359 19.0106 9.16339 18.3106 10.3276C17.6106 11.4918 17.2415 12.818 17.2415 14.1688C17.2415 15.5196 17.6106 16.8458 18.3106 18.01C19.0106 19.1742 20.016 20.134 21.2226 20.79C22.4291 21.4459 23.793 21.7741 25.1728 21.7405C26.5526 21.707 27.8981 21.3129 29.0699 20.5991V21.3106H32.7356V0.696411H29.0699V7.7385ZM24.9931 18.1553C24.1868 18.1553 23.3986 17.9213 22.7282 17.4829C22.0578 17.0445 21.5353 16.4214 21.2267 15.6923C20.9182 14.9633 20.8374 14.1611 20.9947 13.3871C21.152 12.6131 21.5403 11.9022 22.1105 11.3442C22.6806 10.7862 23.407 10.4062 24.1978 10.2523C24.9886 10.0983 25.8083 10.1774 26.5533 10.4793C27.2982 10.7813 27.9349 11.2927 28.3828 11.9488C28.8308 12.605 29.0699 13.3764 29.0699 14.1655C29.0699 15.2237 28.6404 16.2385 27.8758 16.9867C27.1113 17.735 26.0744 18.1553 24.9931 18.1553Z" fill="#1A1A1A"/>
<path d="M89.3236 7.8183C88.1554 7.07588 86.8042 6.65575 85.4124 6.60224C84.0207 6.54873 82.6399 6.86382 81.4159 7.51427C80.1918 8.16471 79.1698 9.12641 78.4577 10.2979C77.7455 11.4694 77.3696 12.8073 77.3696 14.1705C77.3696 15.5336 77.7455 16.8715 78.4577 18.043C79.1698 19.2145 80.1918 20.1762 81.4159 20.8267C82.6399 21.4771 84.0207 21.7922 85.4124 21.7387C86.8042 21.6852 88.1554 21.2651 89.3236 20.5226V21.3106H92.9858V6.84411H89.3236V7.8183ZM85.1177 18.1587C84.3114 18.1587 83.5232 17.9247 82.8528 17.4862C82.1824 17.0478 81.6599 16.4247 81.3513 15.6957C81.0428 14.9666 80.962 14.1644 81.1193 13.3904C81.2766 12.6165 81.6649 11.9055 82.235 11.3476C82.8052 10.7896 83.5316 10.4096 84.3224 10.2556C85.1132 10.1017 85.9329 10.1807 86.6778 10.4827C87.4228 10.7847 88.0595 11.296 88.5074 11.9522C88.9554 12.6083 89.1945 13.3797 89.1945 14.1688C89.1945 15.227 88.765 16.2418 88.0004 16.9901C87.2359 17.7383 86.1989 18.1587 85.1177 18.1587Z" fill="#1A1A1A"/>
<path d="M45.3426 14.8304C45.3426 16.5926 44.0381 18.0289 42.4312 18.0289C40.8242 18.0289 39.5163 16.5926 39.5163 14.8304V6.85068H35.8506V14.8304C35.8506 18.5709 38.8029 21.6131 42.4312 21.6131C46.0594 21.6131 49.0083 18.5709 49.0083 14.8304V6.85068H45.3426V14.8304Z" fill="#1A1A1A"/>
<path d="M68.1796 6.59806C67.262 6.60136 66.3551 6.79236 65.5174 7.15881C64.6796 7.52526 63.9293 8.05907 63.3147 8.72598C62.6989 8.05782 61.947 7.52329 61.1074 7.15679C60.2677 6.7903 59.359 6.59997 58.4396 6.59806C57.2404 6.59718 56.0644 6.92174 55.0423 7.53567V6.53821H51.7266V21.3106H55.416V13.3575C55.416 11.6086 56.7749 10.1856 58.4498 10.1856C60.1246 10.1856 61.4972 11.6086 61.4972 13.3575V21.3106H65.1594V13.3575C65.1594 11.6086 66.5183 10.1856 68.1932 10.1856C69.8681 10.1856 71.227 11.6086 71.227 13.3575V21.3106H74.8892V13.3575C74.8757 9.63034 71.8725 6.59806 68.1796 6.59806Z" fill="#1A1A1A"/>
<path d="M15.4125 13.0982C15.3785 12.8422 15.2664 12.3335 15.2664 12.3335C14.8332 10.3915 13.6357 8.69476 11.9333 7.61074C10.2309 6.52672 8.1607 6.14274 6.17107 6.54198C4.18145 6.94121 2.43265 8.09152 1.30347 9.74373C0.174298 11.3959 -0.244321 13.417 0.138292 15.3691C0.138292 15.4024 0.158676 15.4323 0.165471 15.4655L0.196046 15.6285C1.14389 19.216 4.34413 21.6664 7.83994 21.6664C8.37928 21.6661 8.91698 21.6081 9.44346 21.4935C10.5841 21.2372 11.6613 20.7616 12.6125 20.0944C13.5637 19.4272 14.37 18.5816 14.9844 17.6068L11.825 15.7914C11.0966 16.8994 9.9561 17.6864 8.64509 17.9858C7.86582 18.1352 7.05886 18.0574 6.32443 17.7618C5.58999 17.4663 4.96046 16.9661 4.514 16.3234L15.528 13.9295L15.4125 13.0982ZM6.84114 10.0859C7.65559 9.91227 8.50485 9.98715 9.27448 10.3004C10.0441 10.6137 10.6971 11.1504 11.1455 11.8381L3.71903 13.3642C3.84419 12.5746 4.2087 11.84 4.76535 11.2555C5.322 10.671 6.04515 10.2636 6.84114 10.0859Z" fill="#1A1A1A"/>
<path d="M104 10.4283V6.84413H99.7436V1.99313H96.0813V16.1671C96.0808 16.8424 96.2164 17.5112 96.4801 18.1352C96.7439 18.7592 97.1307 19.3263 97.6184 19.8039C98.1062 20.2816 98.6853 20.6605 99.3228 20.9191C99.9602 21.1776 100.643 21.3107 101.334 21.3107H104V17.7131H101.334C100.913 17.714 100.51 17.5517 100.212 17.2619C99.9138 16.972 99.7454 16.5783 99.7436 16.1671V10.4283H104Z" fill="#1A1A1A"/>
</svg>
